<svg xmlns="http://www.w3.org/2000/svg" width="143" height="42" fill="none"><rect width="142.965" height="41.937" fill="#280F62" rx="20.968"/><path fill="#fff" d="m49.436 16.447 3.527 8.587h-1.055l-.976-2.392h-4.25l-.97 2.392h-1.024l3.527-8.587zm-.626.975-1.748 4.288h3.496zm7.864 1.687c.957 0 1.662.392 2.122.981v-3.889h.914v8.833h-.914v-.865c-.46.595-1.165.982-2.122.982-1.632 0-2.901-1.276-2.901-3.024 0-1.742 1.27-3.018 2.901-3.018m.11.859c-1.245 0-2.079.963-2.079 2.159 0 1.202.846 2.165 2.08 2.165 1.208 0 2.067-.932 2.067-2.165 0-1.227-.86-2.16-2.067-2.16m7.533-.859c.957 0 1.663.392 2.123.981V16.2h.914v8.833h-.914v-.865c-.46.595-1.166.982-2.123.982-1.631 0-2.9-1.276-2.9-3.024 0-1.742 1.269-3.018 2.9-3.018m.11.859c-1.244 0-2.079.963-2.079 2.159 0 1.202.847 2.165 2.08 2.165 1.208 0 2.067-.932 2.067-2.165 0-1.227-.859-2.16-2.067-2.16m11.21-.859c1.435 0 2.422.92 2.422 2.325v3.6h-.914v-3.3c0-1.104-.613-1.754-1.674-1.754-.975 0-1.779.675-1.779 1.779v3.275h-.92v-5.808h.908v.828c.472-.694 1.245-.945 1.956-.945m6.944 0c1.576 0 2.717 1.233 2.73 3 0 .116-.007.239-.019.343h-4.655c.128 1.251 1.006 1.895 2.055 1.895a2.7 2.7 0 0 0 1.84-.73l.49.626c-.723.693-1.533.908-2.386.908-1.717 0-2.938-1.22-2.938-3.018 0-1.779 1.227-3.024 2.883-3.024m-.018.816c-1.074 0-1.767.736-1.914 1.785h3.73c-.117-1.086-.829-1.785-1.816-1.785m9.08-.7 1.742 4.859 1.748-4.858h.95l-2.146 5.808H92.85l-1.736-4.827-1.73 4.827h-1.067l-2.147-5.808h.975l1.736 4.851 1.73-4.852zm13.259.522-.399.711c-.374-.257-1.116-.545-1.901-.545-.828 0-1.374.35-1.374.913 0 .485.423.724 1.184.816l.687.086c1.233.16 1.95.669 1.95 1.62 0 1.104-.993 1.797-2.558 1.797-.748 0-1.686-.184-2.422-.742l.423-.687c.441.343 1.03.631 2.012.631.981 0 1.601-.325 1.601-.938 0-.466-.393-.748-1.215-.847l-.693-.08c-1.307-.159-1.92-.742-1.92-1.607 0-1.097.926-1.76 2.319-1.76.914 0 1.748.258 2.306.632m2.67-3.546v8.833h-.92V16.2zm3.067 3.024v5.81h-.92v-5.81zm-.46-2.71c.362 0 .65.282.65.65a.64.64 0 0 1-.65.644.63.63 0 0 1-.644-.645c0-.367.276-.65.644-.65m5.067 2.594c.957 0 1.662.392 2.122.981v-3.889h.914v8.833h-.914v-.865c-.46.595-1.165.982-2.122.982-1.632 0-2.901-1.276-2.901-3.024 0-1.742 1.269-3.018 2.901-3.018m.11.859c-1.245 0-2.079.963-2.079 2.159 0 1.202.846 2.165 2.079 2.165 1.209 0 2.067-.932 2.067-2.165 0-1.227-.858-2.16-2.067-2.16m7.515-.859c1.576 0 2.717 1.233 2.729 3 0 .116-.006.239-.018.343h-4.656c.129 1.251 1.006 1.895 2.055 1.895.718 0 1.344-.276 1.84-.73l.491.626c-.724.693-1.533.908-2.386.908-1.717 0-2.938-1.22-2.938-3.018 0-1.779 1.227-3.024 2.883-3.024m-.019.816c-1.073 0-1.766.736-1.913 1.785h3.729c-.116-1.086-.828-1.785-1.816-1.785"/><rect width="33.928" height="33.928" x="3.834" y="3.834" fill="#C6A5FF" rx="16.964"/><path stroke="#280F62" stroke-linecap="round" stroke-linejoin="round" stroke-width="1.791" d="M14.861 21.646h11.875m-5.94-5.937v11.875"/></svg>